<svg width="98" height="16" viewBox="0 0 98 16" fill="none" xmlns="http://www.w3.org/2000/svg">
<path d="M0.48 15V0.799999H6.5C7.15333 0.799999 7.75333 0.933332 8.3 1.2C8.84667 1.46667 9.32 1.82667 9.72 2.28C10.1333 2.73333 10.4533 3.24 10.68 3.8C10.9067 4.36 11.02 4.93333 11.02 5.52C11.02 6.32 10.8333 7.08 10.46 7.8C10.0867 8.52 9.57333 9.10667 8.92 9.56C8.26667 10.0133 7.49333 10.24 6.6 10.24H3.24V15H0.48ZM3.24 7.82H6.44C6.77333 7.82 7.07333 7.72667 7.34 7.54C7.60667 7.35333 7.82 7.08667 7.98 6.74C8.14 6.38 8.22 5.97333 8.22 5.52C8.22 5.02667 8.12667 4.60667 7.94 4.26C7.76667 3.91333 7.53333 3.65333 7.24 3.48C6.96 3.30667 6.65333 3.22 6.32 3.22H3.24V7.82ZM17.3061 15.2C16.4528 15.2 15.6861 15.06 15.0061 14.78C14.3261 14.4867 13.7461 14.0867 13.2661 13.58C12.7994 13.0733 12.4394 12.4933 12.1861 11.84C11.9328 11.1867 11.8061 10.5 11.8061 9.78C11.8061 9.04667 11.9328 8.35333 12.1861 7.7C12.4394 7.04667 12.7994 6.46667 13.2661 5.96C13.7461 5.45333 14.3261 5.06 15.0061 4.78C15.6861 4.48667 16.4528 4.34 17.3061 4.34C18.1594 4.34 18.9194 4.48667 19.5861 4.78C20.2661 5.06 20.8461 5.45333 21.3261 5.96C21.8061 6.46667 22.1661 7.04667 22.4061 7.7C22.6594 8.35333 22.7861 9.04667 22.7861 9.78C22.7861 10.5 22.6594 11.1867 22.4061 11.84C22.1661 12.4933 21.8061 13.0733 21.3261 13.58C20.8594 14.0867 20.2861 14.4867 19.6061 14.78C18.9261 15.06 18.1594 15.2 17.3061 15.2ZM14.5661 9.78C14.5661 10.3933 14.6861 10.94 14.9261 11.42C15.1661 11.8867 15.4928 12.2533 15.9061 12.52C16.3194 12.7867 16.7861 12.92 17.3061 12.92C17.8128 12.92 18.2728 12.7867 18.6861 12.52C19.0994 12.24 19.4261 11.8667 19.6661 11.4C19.9194 10.92 20.0461 10.3733 20.0461 9.76C20.0461 9.16 19.9194 8.62 19.6661 8.14C19.4261 7.66 19.0994 7.28667 18.6861 7.02C18.2728 6.75333 17.8128 6.62 17.3061 6.62C16.7861 6.62 16.3194 6.76 15.9061 7.04C15.4928 7.30667 15.1661 7.68 14.9261 8.16C14.6861 8.62667 14.5661 9.16667 14.5661 9.78ZM34.335 15H31.655V9.12C31.655 8.28 31.5083 7.66667 31.215 7.28C30.9217 6.89333 30.515 6.7 29.995 6.7C29.635 6.7 29.2683 6.79333 28.895 6.98C28.535 7.16667 28.2083 7.42667 27.915 7.76C27.6217 8.08 27.4083 8.45333 27.275 8.88V15H24.595V4.52H27.015V6.46C27.2817 6.00667 27.6217 5.62667 28.035 5.32C28.4483 5 28.9217 4.76 29.455 4.6C30.0017 4.42667 30.575 4.34 31.175 4.34C31.8283 4.34 32.3617 4.46 32.775 4.7C33.2017 4.92667 33.5217 5.24 33.735 5.64C33.9617 6.02667 34.115 6.46667 34.195 6.96C34.2883 7.45333 34.335 7.95333 34.335 8.46V15ZM42.8867 14.46C42.6601 14.5533 42.3867 14.66 42.0667 14.78C41.7467 14.9 41.4001 14.9933 41.0267 15.06C40.6667 15.14 40.3001 15.18 39.9267 15.18C39.4334 15.18 38.9801 15.0933 38.5667 14.92C38.1534 14.7467 37.8201 14.4733 37.5667 14.1C37.3267 13.7133 37.2067 13.2133 37.2067 12.6V6.58H35.8267V4.52H37.2067V1.12H39.8867V4.52H42.0867V6.58H39.8867V11.7C39.9001 12.06 40.0001 12.32 40.1867 12.48C40.3734 12.64 40.6067 12.72 40.8867 12.72C41.1667 12.72 41.4401 12.6733 41.7067 12.58C41.9734 12.4867 42.1867 12.4067 42.3467 12.34L42.8867 14.46ZM49.0053 15.2C48.152 15.2 47.3853 15.06 46.7053 14.78C46.0253 14.4867 45.4453 14.0867 44.9653 13.58C44.4986 13.0733 44.1386 12.4933 43.8853 11.84C43.632 11.1867 43.5053 10.5 43.5053 9.78C43.5053 9.04667 43.632 8.35333 43.8853 7.7C44.1386 7.04667 44.4986 6.46667 44.9653 5.96C45.4453 5.45333 46.0253 5.06 46.7053 4.78C47.3853 4.48667 48.152 4.34 49.0053 4.34C49.8586 4.34 50.6186 4.48667 51.2853 4.78C51.9653 5.06 52.5453 5.45333 53.0253 5.96C53.5053 6.46667 53.8653 7.04667 54.1053 7.7C54.3586 8.35333 54.4853 9.04667 54.4853 9.78C54.4853 10.5 54.3586 11.1867 54.1053 11.84C53.8653 12.4933 53.5053 13.0733 53.0253 13.58C52.5586 14.0867 51.9853 14.4867 51.3053 14.78C50.6253 15.06 49.8586 15.2 49.0053 15.2ZM46.2653 9.78C46.2653 10.3933 46.3853 10.94 46.6253 11.42C46.8653 11.8867 47.192 12.2533 47.6053 12.52C48.0186 12.7867 48.4853 12.92 49.0053 12.92C49.512 12.92 49.972 12.7867 50.3853 12.52C50.7986 12.24 51.1253 11.8667 51.3653 11.4C51.6186 10.92 51.7453 10.3733 51.7453 9.76C51.7453 9.16 51.6186 8.62 51.3653 8.14C51.1253 7.66 50.7986 7.28667 50.3853 7.02C49.972 6.75333 49.512 6.62 49.0053 6.62C48.4853 6.62 48.0186 6.76 47.6053 7.04C47.192 7.30667 46.8653 7.68 46.6253 8.16C46.3853 8.62667 46.2653 9.16667 46.2653 9.78Z" fill="white"/>
<path d="M65.2189 0.799999H68.0189L73.2389 15H70.3989L69.0789 11.46H64.1189L62.8189 15H59.9789L65.2189 0.799999ZM68.5789 9.52L66.6189 3.66L64.5789 9.52H68.5789ZM74.7964 15V0.799999H80.8164C81.4697 0.799999 82.0697 0.933332 82.6164 1.2C83.1631 1.46667 83.6364 1.82667 84.0364 2.28C84.4497 2.73333 84.7697 3.24 84.9964 3.8C85.2231 4.36 85.3364 4.93333 85.3364 5.52C85.3364 6.32 85.1497 7.08 84.7764 7.8C84.4031 8.52 83.8897 9.10667 83.2364 9.56C82.5831 10.0133 81.8097 10.24 80.9164 10.24H77.5564V15H74.7964ZM77.5564 7.82H80.7564C81.0897 7.82 81.3897 7.72667 81.6564 7.54C81.9231 7.35333 82.1364 7.08667 82.2964 6.74C82.4564 6.38 82.5364 5.97333 82.5364 5.52C82.5364 5.02667 82.4431 4.60667 82.2564 4.26C82.0831 3.91333 81.8497 3.65333 81.5564 3.48C81.2764 3.30667 80.9697 3.22 80.6364 3.22H77.5564V7.82ZM87.2573 15V0.799999H93.2773C93.9307 0.799999 94.5307 0.933332 95.0773 1.2C95.624 1.46667 96.0973 1.82667 96.4973 2.28C96.9107 2.73333 97.2307 3.24 97.4573 3.8C97.684 4.36 97.7973 4.93333 97.7973 5.52C97.7973 6.32 97.6107 7.08 97.2373 7.8C96.864 8.52 96.3507 9.10667 95.6973 9.56C95.044 10.0133 94.2707 10.24 93.3773 10.24H90.0173V15H87.2573ZM90.0173 7.82H93.2173C93.5507 7.82 93.8507 7.72667 94.1173 7.54C94.384 7.35333 94.5973 7.08667 94.7573 6.74C94.9173 6.38 94.9973 5.97333 94.9973 5.52C94.9973 5.02667 94.904 4.60667 94.7173 4.26C94.544 3.91333 94.3107 3.65333 94.0173 3.48C93.7373 3.30667 93.4307 3.22 93.0973 3.22H90.0173V7.82Z" fill="#0057FF"/>
</svg>
